<svg fill="none" xmlns="http://www.w3.org/2000/svg" viewBox="0 0 73 72"><path d="M16.8376 20.4893c-8.70754 0-15.840041 7.1325-15.840041 15.84s7.132501 15.84 15.840041 15.84c6.3618 0 11.7-3.87 15.435-7.605 2.16-2.16 3.7181-4.2638 4.725-5.715 1.0068 1.4512 2.565 3.555 4.725 5.715 3.735 3.735 9.0731 7.605 15.435 7.605 8.7075 0 15.84-7.1325 15.84-15.84s-7.1325-15.84-15.84-15.84c-6.3619 0-11.7 3.87-15.435 7.605-2.1432 2.1431-3.7182 4.2187-4.725 5.67-1.0013-1.4513-2.52-3.5325-4.635-5.67-3.7013-3.7407-9.0338-7.605-15.525-7.605zm0 2.88c5.3212 0 10.0743 3.3356 13.5 6.795 2.8575 2.8856 4.41 5.2931 4.95 6.165-.5625.8831-2.1994 3.2793-5.085 6.165-3.465 3.465-8.2069 6.795-13.365 6.795-7.13254 0-12.96004-5.8275-12.96004-12.96 0-7.1325 5.8275-12.96 12.96004-12.96zm40.32 0c7.1325 0 12.96 5.8275 12.96 12.96 0 7.1325-5.8275 12.96-12.96 12.96-5.1582 0-9.9-3.33-13.365-6.795-2.8857-2.8857-4.5225-5.2819-5.085-6.165.5625-.8832 2.1993-3.2794 5.085-6.165 3.465-3.465 8.2068-6.795 13.365-6.795zm-1.44 7.2v4.32h-4.32v2.88h4.32v4.32h2.88v-4.32h4.32v-2.88h-4.32v-4.32h-2.88zm-44.64 4.32v2.88h11.52v-2.88h-11.52z" fill="#634D90"/></svg>