<svg fill="none" xmlns="http://www.w3.org/2000/svg" viewBox="0 0 72 72"><path d="M67.2039 18.1165c-.3495-.6408-.8156-1.2233-1.3398-1.5146L37.8447.407767C37.3786.116505 36.7379 0 36.0388 0c-.699 0-1.3398.174757-1.8058.407767L5.98058 16.6019C4.99029 17.1845 4 18.6408 4 19.7476v32.4466c0 .6408.40777 1.3398.81553 1.9806l.05826.0582c.29126.466.75728.8738 1.16504 1.1068L34.1748 71.5922c.466.2913 1.165.4078 1.864.4078.6991 0 1.3398-.1748 1.8059-.4078l27.6699-16.2524c.9903-.5825 1.398-2.0388 1.398-3.1456V19.7476c0-.466.233-1.0486 0-1.5146l.2913-.1165zm-2.4466 1.2233c0 .1748-.1748.2913-.1748.4078v32.4466c0 .466-.1165.9903-.233 1.165L36.6214 69.5534c-.0583.0582-.2913.1165-.6408.1165-.3495 0-.5825-.0583-.6408-.1165L7.26214 53.3592s-.05826-.0582-.11651-.0582l-.34951-.3495c-.23301-.4078.1165-.6408-.46602-.6991V19.8058c.58252-.2912.52427-.9903.81553-1.1068L35.2816 2.4466c.0582 0 .3495-.1165.699-.1165s.5825.05825.6408.1165l27.9611 16.1359.233.5243c.0583.0582-.0582.1748-.0582.233zm-28.7185 2.3884c5.301 0 9.9612 2.9126 12.4078 7.2815l7.5728-4.3689c-3.9611-6.9321-11.4175-11.6505-19.9806-11.6505-12.699 0-23.0097 10.3107-23.0097 23.0097 0 12.699 10.3107 23.0097 23.0097 23.0097 8.5049 0 15.9612-4.6602 19.9224-11.534l-7.5146-4.4272C46 47.3592 41.3398 50.2718 36.0388 50.2718c-7.864 0-14.2718-6.4077-14.2718-14.2718 0-7.8641 6.4078-14.2718 14.2718-14.2718z" fill="#634D90"/></svg>