<svg fill="none" xmlns="http://www.w3.org/2000/svg" viewBox="0 0 72 72"><g clip-path="url(#clip0)"><path d="M9.77738 64.8021L4 0h63.4856l-5.7831 64.7924L35.7043 72 9.77738 64.8021z" fill="#634D90"/><path d="M35.7434 66.4909l21.0081-5.8245 4.9424-55.3683H35.7434v61.1928z" fill="#795EAE"/><path d="M35.7434 28.776h10.517l.7263-8.1385H35.7434v-7.9478h19.9295l-.1908 2.1325-1.9538 21.9016H35.7434V28.776z" fill="#fff"/><path d="M35.7904 49.4168l-.035.0104-8.8511-2.3899-.566-6.3388h-7.9771l1.1131 12.4793 16.2799 4.5184.0362-.0104v-8.269z" fill="#EBEBEB"/><path d="M45.5846 36.3877l-.9573 10.6434-8.8644 2.3928v8.2689l16.2932-4.5154.1196-1.343 1.3825-15.4467h-7.9736z" fill="#fff"/><path d="M35.7704 12.6897v7.9478H16.573l-.1592-1.786-.362-4.0293-.1902-2.1325h19.9088zm-.027 16.0875v7.9477h-8.7397l-.1591-1.7859-.3626-4.0294-.1897-2.1324h9.4511z" fill="#EBEBEB"/></g><defs><clipPath id="clip0"><path fill="#fff" d="M0 0h72v72H0z"/></clipPath></defs></svg>