<svg fill="none" xmlns="http://www.w3.org/2000/svg" viewBox="0 0 73 72"><g clip-path="url(#clip0)"><path d="M10.7778 64.8028L5 0h63.4867l-5.7841 64.793L36.7046 72l-25.9268-7.1972z" fill="#634D90"/><path d="M36.7434 66.4915l21.0079-5.8246L62.694 5.29858H36.7434V66.4915z" fill="#795EAE"/><path d="M36.7434 29.3331H26.2262l-.7265-8.1391h11.2437v-7.9474H16.8137l.1906 2.1321 1.9531 21.9023h17.786v-7.9479zm0 20.6411l-.0352.0098-8.8512-2.3908-.5653-6.3379h-7.9792l1.1134 12.4789 16.2811 4.5195.0364-.0098v-8.2697z" fill="#EBEBEB"/><path d="M36.7156 29.3331v7.9479h9.7867L45.58 47.5886l-8.8644 2.3926v8.269l16.2938-4.516.1195-1.3426 1.8676-20.9241.1935-2.1344H36.7156zm0-16.0865v7.9474h19.198l.1594-1.7856.3626-4.0297.19-2.1321h-19.91z" fill="#fff"/></g><defs><clipPath id="clip0"><path fill="#fff" d="M.574463 0h72v72h-72z"/></clipPath></defs></svg>