<svg fill="none" xmlns="http://www.w3.org/2000/svg" viewBox="0 0 72 73"><path d="M36.08 72c-1.9-.001-3.546-.683-4.891-2.027-1.33-1.33-2.005-2.968-2.005-4.867a6.937 6.937 0 01.519-2.665l-13.35-7.686a7.382 7.382 0 01-.604.672c-1.324 1.339-2.963 2.022-4.864 2.023-1.897 0-3.54-.683-4.88-2.028C4.674 54.098 4 52.464 4 50.567c0-1.898.674-3.542 2-4.886 1.135-1.123 2.476-1.777 4-1.957V28.275c-1.526-.181-2.867-.844-3.996-1.975C4.675 24.975 4.001 23.341 4 21.445c0-1.898.674-3.542 2.001-4.886 1.349-1.335 2.989-2.009 4.884-2.009 1.9 0 3.537.675 4.868 2.004.221.224.425.456.61.696l13.339-7.7a6.883 6.883 0 01-.517-2.653c0-1.897.674-3.538 2.001-4.879C32.537.682 34.18.005 36.078 0c1.904.005 3.542.683 4.871 2.016 1.341 1.341 2.02 2.983 2.016 4.879a6.803 6.803 0 01-.507 2.654l13.351 7.702c.184-.24.386-.47.605-.692 1.349-1.335 2.989-2.009 4.883-2.009 1.9 0 3.538.675 4.869 2.004 1.34 1.347 2.019 2.992 2.016 4.89.003 1.898-.677 3.533-2.02 4.86-1.117 1.13-2.458 1.793-3.992 1.972v15.447c1.536.18 2.875.834 3.995 1.954 1.342 1.347 2.02 2.991 2.016 4.891.004 1.896-.676 3.531-2.02 4.859-1.323 1.339-2.962 2.022-4.864 2.022-1.897 0-3.538-.682-4.88-2.027a7.319 7.319 0 01-.606-.686l-13.356 7.705c.341.822.512 1.715.509 2.667.003 1.897-.676 3.537-2.019 4.868-1.324 1.34-2.963 2.023-4.865 2.024zm-4.455-9.46c-.45.764-.67 1.604-.673 2.569 0 1.43.487 2.614 1.487 3.615 1.016 1.014 2.206 1.508 3.64 1.509 1.432-.002 2.615-.494 3.615-1.506 1.016-1.006 1.504-2.188 1.502-3.62.003-.965-.214-1.804-.663-2.568a5.265 5.265 0 00-.832-1.059c-1.004-1.002-2.187-1.488-3.622-1.489-1.436 0-2.628.488-3.644 1.49-.317.322-.59.678-.805 1.05l-.005.008zm5.338-4.266c1.528.18 2.865.835 3.985 1.953.222.22.427.45.614.689l13.356-7.704a6.84 6.84 0 01-.517-2.642 6.992 6.992 0 01.52-2.679l-3.394-1.957c-1.296.83-2.766 1.25-4.385 1.252H36.963v11.088zm-19.709-5.04l13.336 7.678c.181-.236.38-.463.595-.68 1.138-1.124 2.482-1.778 4.01-1.958V47.185l-10.02-.01-.167.01-.045.001h-.232c-1.533-.037-2.918-.448-4.14-1.22l-3.338 1.932c.346.822.523 1.715.527 2.665a6.882 6.882 0 01-.526 2.67zm39.586-.127l.005.01c.217.372.493.728.822 1.057 1.013 1.014 2.2 1.508 3.63 1.508 1.431 0 2.614-.492 3.615-1.504 1.015-1.004 1.504-2.182 1.501-3.61.003-1.436-.487-2.627-1.5-3.642-.999-.998-2.183-1.485-3.617-1.485h-.009c-1.427.003-2.613.49-3.623 1.49a5.473 5.473 0 00-.821 1.057c-.45.771-.67 1.616-.674 2.582.004.95.223 1.783.67 2.537zm-45.956-7.666c-1.432 0-2.62.488-3.632 1.49-.996 1.008-1.484 2.2-1.484 3.637 0 1.429.486 2.608 1.486 3.605 1.013 1.015 2.2 1.51 3.63 1.51 1.431 0 2.614-.493 3.615-1.505.336-.332.612-.681.83-1.045v-.003c.456-.763.679-1.602.683-2.567-.004-.954-.226-1.794-.683-2.56a.01.01 0 00-.001-.003l-.002-.002v-.002a5.238 5.238 0 00-.826-1.072c-.998-.997-2.182-1.483-3.616-1.483zm.884-1.717c1.527.18 2.865.835 3.984 1.953.222.223.424.455.61.695l2.753-1.594-.005-.005c-1.594-1.592-2.402-3.542-2.402-5.796 0-2.256.808-4.21 2.402-5.805 1.305-1.303 2.85-2.08 4.603-2.319.012-.316.04-.629.08-.938l-7.44-4.283a7.412 7.412 0 01-.604.672c-1.114 1.128-2.452 1.79-3.98 1.972v15.448zm41.219 1.01l2.826 1.631c.183-.236.383-.464.6-.683 1.132-1.12 2.468-1.775 3.989-1.956V28.275c-1.523-.184-2.86-.846-3.986-1.974a7.132 7.132 0 01-.593-.666l-6.658 3.833a5.889 5.889 0 01.062 1.55c1.392.353 2.641 1.075 3.721 2.153 1.596 1.597 2.404 3.55 2.403 5.807.001 2.234-.794 4.171-2.364 5.757zm-31.815-.512c1.05.772 2.22 1.163 3.58 1.197l.34-.01c.02-.001.053 0 .06-.002l21.99.011c1.45-.002 2.693-.403 3.796-1.226a7.85 7.85 0 00.76-.668c1.27-1.268 1.886-2.755 1.885-4.547.001-1.796-.616-3.286-1.885-4.557-1.043-1.041-2.225-1.638-3.614-1.826a.886.886 0 01-.733-1.116c.09-.313.133-.65.132-1.006a3.67 3.67 0 00-.175-1.158 3.398 3.398 0 00-.858-1.344c-.7-.704-1.518-1.045-2.504-1.047-.845.003-1.565.25-2.197.757a.886.886 0 01-1.323-.256c-.35-.62-.8-1.211-1.34-1.758-.96-.956-2.058-1.625-3.26-1.984l-.005-.001a8.166 8.166 0 00-2.372-.337h-.014c-2.218 0-4.058.761-5.627 2.327-1.157 1.156-1.869 2.444-2.175 3.939l-.007.035a8.666 8.666 0 00-.156 1.665c-.002.122-.002.232 0 .342a.883.883 0 01-.85.894c-1.667.063-3.06.676-4.261 1.875-1.268 1.27-1.885 2.76-1.884 4.556 0 1.792.616 3.278 1.884 4.545a6.994 6.994 0 00.813.7zm-3.918-20.11l6.958 4.005c.468-1.365 1.254-2.604 2.347-3.696 1.89-1.888 4.204-2.844 6.876-2.844.604.017 1.191.048 1.76.145v-7.995c-1.53-.178-2.874-.837-4.005-1.964a7.182 7.182 0 01-.6-.685l-13.337 7.699c.347.821.523 1.714.526 2.664a6.872 6.872 0 01-.525 2.67zm26.691 1.044c1.463.003 2.726.53 3.757 1.565.33.33.61.687.838 1.067l6.386-3.676a6.849 6.849 0 01-.525-2.664 6.945 6.945 0 01.52-2.669l-13.36-7.705c-.187.239-.393.47-.617.691-1.114 1.124-2.452 1.783-3.98 1.962v8.476c1.237.471 2.37 1.215 3.375 2.217.42.426.796.873 1.123 1.34a5.25 5.25 0 012.483-.604zm-33.06-8.838c-1.433 0-2.621.488-3.633 1.49-.996 1.009-1.484 2.201-1.484 3.637 0 1.429.486 2.609 1.486 3.605 1.013 1.016 2.2 1.51 3.63 1.51 1.432 0 2.615-.493 3.615-1.505.337-.333.614-.682.83-1.046l.001-.001c.455-.763.678-1.602.682-2.567-.004-.955-.226-1.794-.681-2.56l-.008-.011a5.246 5.246 0 00-.823-1.068c-.998-.997-2.182-1.483-3.616-1.484zm45.971 7.698c.213.365.484.712.808 1.032 1.014 1.016 2.197 1.51 3.623 1.512 1.442 0 2.624-.494 3.624-1.505 1.016-1.004 1.504-2.182 1.502-3.609v-.003c.003-1.434-.488-2.624-1.5-3.64-.999-.998-2.183-1.484-3.617-1.485-1.431 0-2.62.488-3.632 1.49-.323.327-.6.686-.817 1.06l-.004.008c-.45.767-.67 1.608-.674 2.572.004.96.226 1.8.681 2.558l.006.01zM36.08 12.01h.013c1.427 0 2.606-.489 3.603-1.495a5.196 5.196 0 00.84-1.064c.447-.758.664-1.593.661-2.553.003-1.433-.487-2.62-1.498-3.632-1.002-1.004-2.186-1.493-3.62-1.497-1.432.003-2.625.494-3.641 1.5-.997 1.007-1.484 2.195-1.484 3.627.003.96.223 1.796.671 2.554h.001l.007.012c.213.372.486.726.81 1.053 1.009 1.005 2.196 1.495 3.625 1.495h.012zm.013 30.868h-.029c-1.89 0-3.531-.677-4.873-2.014a7.095 7.095 0 01-1.08-1.41c-.609-1.016-.922-2.186-.926-3.466.004-1.271.313-2.433.919-3.458a7 7 0 011.079-1.417c1.356-1.338 3-2.011 4.897-2.011 1.9 0 3.538.675 4.869 2.004.445.445.822.929 1.12 1.437.599 1.027.9 2.185.896 3.444.004 1.268-.302 2.435-.907 3.463-.3.502-.672.977-1.11 1.414-1.324 1.335-2.959 2.014-4.855 2.014zm-.013-12.009c-1.436 0-2.628.488-3.644 1.491-.315.322-.589.681-.803 1.058-.456.772-.677 1.61-.68 2.57.004.966.226 1.808.681 2.57.221.38.492.735.812 1.06 1.006 1.002 2.193 1.492 3.621 1.492h.023c1.43 0 2.609-.489 3.606-1.495.337-.335.619-.693.84-1.066.447-.758.664-1.597.661-2.562.003-.959-.211-1.792-.654-2.552a5.412 5.412 0 00-.844-1.08c-1.001-.999-2.184-1.485-3.619-1.486z" fill="#634D90"/></svg>