<svg fill="none" xmlns="http://www.w3.org/2000/svg" viewBox="0 0 72 73"><g clip-path="url(#clip0)"><path d="M-.287109 1H71.7123v72H-.287109V1z" fill="#634D90"/><path d="M65.82 55.8277c-.5275-3.2847-2.6693-6.0436-9.0138-8.6163-2.2039-1.0128-4.661-1.7381-5.3932-3.4083-.2599-.972-.2944-1.5196-.1299-2.1079.4722-1.9095 2.7515-2.5048 4.558-1.9573 1.1635.39 2.265 1.2866 2.9293 2.717 3.1069-2.0118 3.1006-1.9986 5.27-3.3813-.7942-1.2314-1.2181-1.7996-1.7381-2.3264-1.8686-2.0873-4.4148-3.1622-8.4869-3.08l-2.1211.2744c-2.0326.5136-3.9697 1.5805-5.1056 3.0109-3.4083 3.8673-2.4363 10.6356 1.7111 13.4211 4.0858 3.0667 10.0881 3.7643 10.8548 6.632.7459 3.5107-2.5802 4.6472-5.8861 4.2435-2.4363-.5067-3.7914-1.745-5.2563-3.9967-2.6963 1.5603-2.6963 1.5603-5.4685 3.1547.6574 1.4372 1.3481 2.0877 2.4501 3.3329 5.2155 5.2903 18.2667 5.0303 20.6076-2.9769.0949-.275.7253-2.1085.2186-4.9354zM38.8541 34.0911h-6.7344l-.0276 17.4109c0 3.7028.1915 7.0974-.4107 8.1378-.9852 2.0464-3.5383 1.7927-4.7018 1.3959-1.1842-.5821-1.7864-1.4097-2.4841-2.5796-.1915-.3358-.3353-.5958-.3836-.6159l-5.4754 3.3531c.9104 1.8686 2.2517 3.4906 3.9697 4.5442 2.5663 1.5403 6.0154 2.0125 9.6228 1.1843 2.3477-.6839 4.3734-2.1005 5.434-4.2567 1.5333-2.8269 1.2043-6.2484 1.1905-10.0329.0345-6.1742.0006-12.3473.0006-18.5411z" fill="#fff"/></g><defs><clipPath id="clip0"><path fill="#fff" d="M0 .712891h72v72H0z"/></clipPath></defs></svg>