<svg fill="none" xmlns="http://www.w3.org/2000/svg" viewBox="0 0 73 72"><path d="M27.1013 55.6809s-2.7497 1.6 1.9594 2.1399c5.7057.6518 8.6215.5584 14.9075-.6299 0 0 1.656 1.0354 3.9644 1.9329-14.0965 6.0392-31.902-.3501-20.8313-3.4429zm-1.7235-7.8821s-3.0848 2.2836 1.6283 2.7716c6.0951.6293 10.9074.6806 19.2388-.9229 0 0 1.1495 1.168 2.9601 1.806-17.0399 4.9836-36.0192.3922-23.8272-3.6547zM39.8976 34.426c3.4752 4.0002-.9114 7.5966-.9114 7.5966s8.8188-4.5516 4.7696-10.2539c-3.7832-5.3153-6.6834-7.9553 9.0184-17.0619 0 .0006-24.6475 6.1545-12.8766 19.7192z" fill="#634D90"/><path d="M58.5403 61.5118s2.0356 1.6785-2.2426 2.9757c-8.1341 2.4642-33.862 3.2071-41.0074.0987-2.5674-1.1179 2.2489-2.6678 3.7642-2.9948 1.5799-.342 2.482-.2797 2.482-.2797-2.8569-2.0114-18.46527 3.9511-7.927 5.6613 28.737 4.6583 52.3837-2.0978 44.9308-5.4612zM28.4247 39.6307s-13.0854 3.1084-4.6335 4.2384c3.5693.4775 10.6813.368 17.3105-.1881 5.4162-.4551 10.8515-1.427 10.8515-1.427s-1.9081.8185-3.2901 1.761c-13.2908 3.496-38.95976 1.8677-31.5692-1.7062 6.248-3.0219 11.3308-2.6781 11.3308-2.6781zM51.899 52.7513c13.5093-7.018 7.2625-13.7626 2.9025-12.8541-1.066.222-1.5442.4153-1.5442.4153s.3969-.6224 1.1537-.89c8.6249-3.0312 15.257 8.9422-2.782 13.6847 0-.0012.2071-.1886.27-.3559zM43.7555 0s7.4801 7.48463-7.0964 18.9902c-11.6895 9.2323-2.6654 14.4951-.004 20.5106-6.8242-6.1562-11.8297-11.5765-8.4722-16.6207C33.1135 15.4774 46.7728 11.8868 43.7555 0z" fill="#634D90"/><path d="M29.7524 71.7741c12.9643.8289 32.8779-.4615 33.3491-6.5964 0 0-.9061 2.3257-10.7153 4.1709-11.0666 2.0834-24.7184 1.8406-32.8127.5041 0 .0006 1.6583 1.3734 10.1789 1.9214z" fill="#634D90"/></svg>