<svg fill="none" xmlns="http://www.w3.org/2000/svg" viewBox="0 0 73 72"><g clip-path="url(#clip0)"><path d="M66.194 15.9536L39.9368.707383c-1.6559-.943177-3.812-.943177-5.481 0L7.91825 15.9536C6.20934 16.9367 5 18.7843 5 20.7606v30.452c0 1.9763 1.2409 3.8245 2.94981 4.8129l7.01129 3.9823c3.3512 1.6506 4.5355 1.6506 6.0604 1.6506 4.9618 0 7.7961-3.0004 7.7961-8.2337V23.3609c0-.4246-.2209-1.0563-.6377-1.0563h-3.3482c-.4239 0-1.3731.6317-1.3731 1.0557v30.0638c0 2.3198-2.0983 4.6283-6.0199 2.6675l-7.2447-4.1758c-.25244-.1369-.43048-.4126-.43048-.7032v-30.452c0-.287.33048-.5752.58468-.7223l26.4519-15.22c.2471-.13993.6103-.13993.8568 0L63.786 20.0348c.2501.1506.162.4299.162.7258v30.452c0 .2906.1089.5734-.1382.7133l-26.2505 15.229c-.2251.1352-.5044.1352-.7509 0l-6.7326-4.0186c-.2031-.1179-.4442-.1602-.6389-.0512-1.8733 1.0616-2.2187 1.2028-3.9758 1.8119-.4323.1506-1.07.412.2441 1.1486l8.8114 5.2125c.8437.4882 1.8024.7419 2.767.7419.9777 0 1.9351-.2537 2.7789-.7419l26.1309-15.2326c1.7089-.9955 2.5187-2.8366 2.5187-4.8129v-30.452c0-1.9763-.8098-3.8191-2.5181-4.807zM45.4363 46.3872c-6.9821 0-8.5201-1.9263-9.0328-5.3983-.0595-.3739-.3769-.8211-.7574-.8211h-3.4125c-.4221 0-.7615.5121-.7615.9324 0 4.4456 2.4169 9.8319 13.9648 9.8319 8.3594 0 13.1521-3.2481 13.1521-8.9965 0-5.6995-3.8507-7.1953-11.9576-8.2682-8.1945-1.0831-9.0269-1.6304-9.0269-3.5501 0-1.5826.705-3.6935 6.7725-3.6935 5.4215 0 7.4198 1.1635 8.2421 4.8177.0703.3436.3841.5901.7384.5901h3.4261c.2108 0 .4121-.0851.5597-.2358.1429-.1619.2186-.365.1995-.5829-.5305-6.2926-4.7111-9.2252-13.1664-9.2252-7.521 0-12.0076 3.1761-12.0076 8.4999 0 5.7746 4.464 7.3704 11.6837 8.0843 8.6369.8468 9.3085 2.1091 9.3085 3.8079 0 2.9504-2.3686 4.2074-7.9247 4.2074z" fill="#634D90"/></g><defs><clipPath id="clip0"><path fill="#fff" d="M.574463 0h72v72h-72z"/></clipPath></defs></svg>