<svg fill="none" xmlns="http://www.w3.org/2000/svg" viewBox="0 0 73 72"><path d="M36.1829.00055325C33.2461.0144654 30.4428.264189 27.9748.70103c-7.2691 1.28409-8.588 3.97192-8.588 8.92952v6.54635h17.1766v2.1821H12.9399c-4.99168 0-9.36288 3.0002-10.73045 8.7097-1.577634 6.5422-1.647195 10.6255 0 17.457 1.2208 5.0856 4.13678 8.7083 9.12915 8.7083h5.9064v-7.8478c0-5.6699 4.9048-10.6706 10.7305-10.6706h17.1571c4.7761 0 8.588-3.933 8.588-8.7285V9.63124c0-4.6557-3.9274-8.15252-8.588-8.929514-2.9521-.491099-6.0135-.7143893-8.9497-.70117275zM26.8938 5.26561c1.7738 0 3.2234 1.4726 3.2234 3.28396 0 1.80373-1.4489 3.26243-3.2234 3.26243-1.7808 0-3.2228-1.4587-3.2228-3.26243-.0007-1.81136 1.442-3.28396 3.2228-3.28396z" fill="#634D90"/><path d="M55.8624 18.3588v7.6281c0 5.9127-5.0139 10.8897-10.7304 10.8897H27.9748c-4.6995 0-8.588 4.0227-8.588 8.7292V61.963c0 4.6544 4.0471 7.393 8.588 8.7278 5.4369 1.5978 10.6512 1.8872 17.1572 0 4.3239-1.2528 8.588-3.7723 8.588-8.7278v-6.547H36.5635v-2.1828h25.7458c4.9917 0 6.8532-3.4816 8.5894-8.7084 1.7933-5.3805 1.7161-10.5551 0-17.4569-1.234-4.9702-3.59-8.7097-8.5894-8.7097h-6.4469v.0006zm-9.6501 41.4214c1.7814 0 3.2234 1.4587 3.2234 3.2638 0 1.81-1.4427 3.2826-3.2234 3.2826-1.7738 0-3.2228-1.4726-3.2228-3.2826 0-1.8051 1.449-3.2638 3.2228-3.2638z" fill="#795EAE"/></svg>