<svg fill="none" xmlns="http://www.w3.org/2000/svg" viewBox="0 0 72 72"><g clip-path="url(#clip0)" fill="#634D90"><path d="M35.98 42.7029c3.6207 0 6.5559-2.9352 6.5559-6.5559 0-3.6208-2.9352-6.5559-6.5559-6.5559-3.6207 0-6.5559 2.9351-6.5559 6.5559 0 3.6207 2.9352 6.5559 6.5559 6.5559z"/><path d="M60.8809 25.3355c-1.2651-.4601-2.5878-.9202-3.968-1.3227.345-1.3802.6326-2.7604.8626-4.0831 1.2077-7.591-.115-12.93929-3.7955-15.00957C52.8873 4.28754 51.6797 4 50.2995 4c-4.0256 0-9.1438 2.99041-14.3195 7.9936C30.8043 6.99041 25.686 4 21.6605 4c-1.3802 0-2.5879.28754-3.6805.92013-3.6805 2.12779-5.0032 7.47607-3.7955 15.00957.23 1.3227.5175 2.7029.8626 4.0831-1.3802.4025-2.7029.8051-3.9681 1.3227C3.89052 28.0958-.0200195 31.8914-.0200195 36.147c0 4.2555 3.9680495 8.0511 11.0990195 10.8115 1.2652.46 2.5879.9201 3.9681 1.3226-.3451 1.3802-.6326 2.7604-.8626 4.0831-1.2077 7.5911.115 12.9393 3.7955 15.0096 1.0926.6326 2.3003.9201 3.6805.9201 4.0831 0 9.2013-2.9904 14.3195-7.9936 5.1757 5.0032 10.2939 7.9936 14.3195 7.9936 1.3802 0 2.5878-.2875 3.6805-.9201 3.6805-2.1278 5.0032-7.4761 3.7955-15.0096-.23-1.3227-.5176-2.7029-.8626-4.0831 1.3802-.4025 2.7029-.8051 3.968-1.3226C68.0694 44.1981 71.98 40.4025 71.98 36.147c0-4.2556-3.9106-8.0512-11.0991-10.8115zM52.3698 7.79553c2.3578 1.38019 3.1629 5.63577 2.1853 11.67407-.1726 1.2077-.4601 2.4729-.8052 3.7956-2.9904-.6901-6.1533-1.1502-9.4888-1.4377-1.9552-2.7604-3.968-5.2333-5.9808-7.4761 4.2556-4.198 8.5687-7.07345 12.0767-7.07345.7476 0 1.4377.17253 2.0128.51758zM45.9289 41.8978c-1.0352 1.8402-2.2429 3.6805-3.508 5.5207-2.1278.1725-4.2556.2301-6.4409.2301-2.2428 0-4.3706-.0576-6.4409-.2301-1.2652-1.8402-2.4154-3.6805-3.4505-5.5207C24.996 40 23.9608 38.0447 23.0407 36.147c.9201-1.8978 1.9553-3.8531 3.0479-5.7508 1.0351-1.8403 2.2428-3.6805 3.508-5.5208 2.1278-.1725 4.2556-.23 6.4409-.23 2.2428 0 4.3706.0575 6.4409.23 1.2652 1.8403 2.4153 3.6805 3.4505 5.5208 1.0926 1.8977 2.1278 3.853 3.0479 5.7508-.9777 1.8977-1.9553 3.7955-3.0479 5.7508zM50.702 40c.8626 2.0128 1.5527 3.968 2.1853 5.9233-1.9552.4601-4.0255.8051-6.2108 1.0927.6901-1.0927 1.4377-2.2428 2.0702-3.4505.6901-1.2077 1.3227-2.4153 1.9553-3.5655zM35.98 55.5847c-1.3802-1.4953-2.7029-3.1055-3.9681-4.7732 1.3227.0575 2.6454.115 3.9681.115 1.3227 0 2.6453-.0575 3.968-.115-1.2651 1.6677-2.5878 3.2779-3.968 4.7732zm-10.6965-8.6262c-2.1853-.2876-4.2556-.6326-6.2109-1.0927.6326-1.8978 1.3227-3.9105 2.1853-5.9233.6326 1.1501 1.2652 2.3578 1.9553 3.508.6901 1.2651 1.3802 2.3578 2.0703 3.508zm-4.0256-14.6646c-.8626-2.0128-1.5527-3.968-2.1853-5.9233 1.9553-.4601 4.0256-.8051 6.2109-1.0926-.6901 1.0926-1.4377 2.2428-2.0703 3.4504-.6901 1.2077-1.3227 2.4154-1.9553 3.5655zM35.98 16.7093c1.3802 1.4952 2.7029 3.1054 3.968 4.7731-1.3227-.0575-2.6453-.115-3.968-.115-1.3227 0-2.6454.0575-3.9681.115 1.2652-1.6677 2.5879-3.2779 3.9681-4.7731zm12.7667 12.0766l-2.0702-3.4504c2.1853.2875 4.2556.6325 6.2108 1.0926-.6326 1.8978-1.3227 3.9106-2.1853 5.9233-.6326-1.2076-1.2652-2.4153-1.9553-3.5655zm-31.3418-9.3163c-.9776-6.0383-.1725-10.29388 2.1853-11.67407.5751-.34505 1.2652-.51758 2.0128-.51758 3.4505 0 7.7636 2.81785 12.0767 7.07345-2.0128 2.1853-4.0256 4.7157-5.9809 7.4761-3.3354.2875-6.4984.8051-9.4888 1.4377-.345-1.3227-.5751-2.5879-.8051-3.7956zM3.20043 36.147c0-2.7029 3.27795-5.5783 9.02877-7.7061 1.1501-.4601 2.4153-.8626 3.6805-1.2077.9201 2.8754 2.0703 5.9233 3.4505 8.9713-1.3802 3.0479-2.5879 6.0383-3.4505 8.9137-7.93611-2.3003-12.70927-5.7508-12.70927-8.9712zM19.5902 64.4984c-2.3578-1.3802-3.1629-5.6358-2.1853-11.6741.1725-1.2077.4601-2.4729.8051-3.7956 2.9904.6901 6.1534 1.1502 9.4888 1.4377 1.9553 2.7604 3.9681 5.2333 5.9809 7.4761-4.2556 4.1981-8.5687 7.0735-12.0767 7.0735-.7476 0-1.4377-.1726-2.0128-.5176zm34.9649-11.6741c.9776 6.0383.1725 10.2939-2.1853 11.6741-.5751.345-1.2652.5176-2.0128.5176-3.4505 0-7.7636-2.8179-12.0767-7.0735 2.0128-2.1853 4.0256-4.7157 5.9808-7.4761 3.3355-.2875 6.4984-.8051 9.4888-1.4377.3451 1.3227.5751 2.5879.8052 3.7956zm5.1757-8.9713c-1.1502.4601-2.4154.8626-3.6805 1.2077-.9202-2.8754-2.0703-5.9233-3.4505-8.9712 1.3802-3.048 2.5878-6.0384 3.4505-8.9138 7.9361 2.3003 12.7092 5.7508 12.7092 8.9713 0 2.7028-3.3354 5.5782-9.0287 7.706z"/></g><defs><clipPath id="clip0"><path fill="#fff" d="M0 0h72v72H0z"/></clipPath></defs></svg>