<svg fill="none" xmlns="http://www.w3.org/2000/svg" viewBox="0 0 72 73"><g clip-path="url(#clip0)"><path d="M69.604 27.2598H12.1941v42.4339H69.604V27.2598z" fill="#fff"/><path d="M0 37v36h72V1H0v36zm58.0205-2.88c1.7245.4002 3.2918 1.3021 4.5043 2.592.6675.6949 1.2478 1.4686 1.728 2.304 0 .0922-3.1104 2.1946-5.0054 3.3696-.0692.0461-.3456-.2534-.6509-.7085-.346-.5969-.8375-1.0965-1.4288-1.452-.5912-.3556-1.2629-.5555-1.9523-.5813-2.1831-.1497-3.5885.9965-3.577 2.88-.0181.469.0893.9343.311 1.3479.4781.9965 1.3709 1.5897 4.1703 2.7993 5.1552 2.2176 7.3612 3.6807 8.7321 5.76 1.5322 2.304 1.872 6.025.8352 8.7783-1.152 2.9952-3.9744 5.0285-7.966 5.7024-1.8232.2088-3.6652.1894-5.4836-.0576-2.7869-.4594-5.354-1.7975-7.3267-3.8189-.6624-.7315-1.9526-2.6381-1.872-2.7763.2103-.1561.4317-.2967.6624-.4205l2.6669-1.4746 2.0678-1.198.432.6393c.7291 1.0429 1.6569 1.9316 2.7303 2.6151 2.304 1.2096 5.4489 1.0425 7.0041-.3572.5222-.5129.8479-1.1926.9206-1.921.0726-.7283-.1125-1.459-.5231-2.0649-.576-.8006-1.728-1.4745-4.9479-2.88-3.7152-1.6013-5.3164-2.592-6.7795-4.1702-.9133-1.0415-1.5877-2.2702-1.9757-3.6-.2894-1.5193-.3322-3.0752-.1267-4.608.7661-3.5885 3.456-6.0941 7.3843-6.8371 1.8193-.2251 3.6621-.1747 5.4663.1497V34.12zm-16.8999 3.0182v2.9492h-9.3484v26.6284h-6.6298V40.0816h-9.3715v-2.88c-.0292-.9932-.0061-1.9872.0691-2.9779.0461-.0519 5.76-.0519 12.672-.0519h12.5741l.0345 2.9664z" fill="#634D90"/></g><defs><clipPath id="clip0"><path fill="#fff" d="M0 .712891h72v72H0z"/></clipPath></defs></svg>